<svg id="SvgjsSvg1001" width="288" height="288" xmlns="http://www.w3.org/2000/svg" version="1.1" xmlns:xlink="http://www.w3.org/1999/xlink" xmlns:svgjs="http://svgjs.com/svgjs"><defs id="SvgjsDefs1002"></defs><g id="SvgjsG1008"><svg xmlns="http://www.w3.org/2000/svg" width="288" height="288" version="1.2" viewBox="0 0 918 797"><use href="#a"></use><path fill="#ffffff" d="m0 0h918v797h-918v-398.5z" class="colorfff svgShape"></path><path fill-rule="evenodd" d="m432.5 77.1c6.6 0 16.3 0.6 21.5 1.5 5.2 0.8 13.4 2.8 18.3 4.4 4.8 1.7 11.3 4.3 14.4 5.9 3.2 1.6 9.9 5.6 14.8 8.9 5.3 3.5 12.8 9.9 18.1 15.3 4.9 5.2 11.3 12.8 14 16.9 2.8 4.1 11.8 20.3 20.1 36 8.3 15.7 19.5 37.1 25 47.5 5.5 10.4 15.7 29.8 22.6 43 6.9 13.2 22.3 42.9 34.2 66 12 23.1 35.6 69 52.5 102 16.9 33 40.2 78.7 51.7 101.5 13.3 26.2 22.2 45 24.1 51 1.7 5.2 3.8 13.3 4.7 18 0.8 4.7 1.5 13.7 1.5 20 0 6.3-0.6 15.3-1.5 20-0.8 4.7-2.6 12.1-4 16.5-1.5 4.4-4.3 11.6-6.4 16-2 4.4-6.2 11.6-9.1 16-3 4.4-8.6 11.3-12.5 15.4-3.8 4-10.6 10-15 13.3-4.4 3.3-13 8.4-19 11.4-6.2 3.1-15.1 6.4-20.5 7.8-5.2 1.4-14.2 2.9-20 3.5-7.2 0.8-68.9 1.1-194 1.1-121.9 0-187.5-0.4-195.5-1.1-6.6-0.6-16.1-2.1-21-3.4-5-1.2-12.8-4.2-17.5-6.5-6.4-3.2-10.3-6.1-16.1-11.9-5-5-8.5-9.6-10.2-13.3-1.5-3.2-3.4-8.8-4.3-12.5-1.1-4.8-1.5-9.5-1.1-15.8 0.3-5.9 1.4-11.7 3.2-17 1.4-4.4 4.7-11.4 7.3-15.5 2.6-4.1 7.8-10.7 11.7-14.5 3.8-3.9 10.4-9.5 14.5-12.4 4.1-2.9 10.5-6.8 14.2-8.7 3.8-1.9 10.2-4.8 14.3-6.4 4.1-1.6 10.8-3.8 14.7-4.9 4-1 7.4-2.4 7.5-3 0.2-0.7-2.5-1.1-8.5-1.1-4.8 0-13.4 0.7-19.2 1.5-5.8 0.8-15.7 2.9-22 4.6-6.3 1.7-16 4.9-21.5 7-5.5 2.2-14.3 6.3-19.5 9.1-5.2 2.7-13.8 7.8-19 11.2-5.2 3.5-12.9 9-17 12.3-4.1 3.3-12.7 11.4-19 18-6.3 6.5-14.4 16.1-18 21.3-3.6 5.2-8.1 12.6-10.2 16.5-3.1 5.8-3.8 6.7-4.4 5-0.4-1.1 0-5.8 1-10.5 0.9-4.7 3.1-12.5 4.7-17.5 1.7-5 5-13 7.4-18 2.5-5 6.7-12.4 9.4-16.5 2.7-4.1 8.7-12 13.3-17.4 4.5-5.5 12.1-13.3 16.8-17.4 4.7-4.1 12.2-10.2 16.8-13.6 4.6-3.3 12.9-8.8 18.5-12 5.6-3.3 15.4-8.3 21.7-11.2 6.3-2.8 15.5-6.6 20.5-8.4 4.9-1.7 14.2-4.4 20.5-6 6.3-1.6 16.7-3.8 23-4.9 6.3-1.1 17.8-2.5 25.5-3.2 8.8-0.7 22.3-0.9 36.5-0.6 12.4 0.4 29.7 1.3 38.5 2.2 8.8 0.8 22.3 2.5 30 3.6 7.7 1.1 21.6 3.6 31 5.6 9.4 1.9 23.9 5.5 32.2 7.9 8.4 2.4 22.6 7.1 31.5 10.3 9 3.3 21 8.1 26.8 10.6 5.8 2.5 15.7 7.3 22 10.7 6.3 3.3 16.7 9.2 23 13 6.3 3.9 17.4 11.4 24.5 16.8 7.1 5.4 17.4 13.9 22.7 18.9 6.5 6 10 8.7 10.5 7.9 0.3-0.7 0.3-4.2-0.1-7.8-0.3-3.6-1.5-9.9-2.7-14-1.1-4.1-4.5-12.7-7.5-19-3-6.3-8.8-16.5-12.9-22.5-4-6-12-16.6-17.8-23.5-5.7-6.9-17-19.4-25.1-27.7-11-11.5-14.7-16.1-15.2-18.5-0.3-2 0-4.8 1-7 1.2-2.9 2.8-4.3 6.3-6 4.5-2.2 6.4-2.3 34.3-2.8 27-0.5 29.9-0.7 34-2.6 2.5-1.1 5.9-3.4 7.5-5 1.6-1.6 4.8-5.9 7-9.4 2.2-3.6 5-9 6.2-12 1.2-3 2.3-7.2 2.3-9.2 0-2.1-0.6-5.3-1.3-7-0.8-1.8-6.3-10-12.3-18.3-6.1-8.2-13.7-18.8-17-23.4-3.2-4.6-9.1-11.3-13-15-3.8-3.6-10.1-8.3-14-10.3-3.8-2-12.5-5.5-19.4-7.8-6.9-2.3-14.6-5.3-17.3-6.6-2.6-1.3-6.8-4.3-9.4-6.6-2.5-2.4-8-9.5-12.1-15.8-4.1-6.3-10.6-15.6-14.4-20.5-3.8-4.9-10.4-12.5-14.6-16.8-4.2-4.4-10.4-10-13.7-12.7-3.3-2.6-9.6-6.9-14-9.5-4.4-2.6-11.4-6.2-15.5-8-4.1-1.8-11.1-4.4-15.5-5.8-4.4-1.4-11.8-3.2-16.5-4-4.7-0.9-12.3-1.9-17-2.2-4.7-0.3-13-0.2-18.5 0.4-5.5 0.6-12.4 1.5-15.3 2.1q-5.2 1-4.7 2.3c0.2 0.6 2.8 2.3 5.7 3.7 2.9 1.4 9.3 5.2 14.3 8.5 4.9 3.3 13 10.1 18 15 4.9 5 14.6 15.8 21.5 24.1 6.8 8.2 17.2 19.8 23 25.8 5.8 5.9 13.4 13 17 15.7 3.6 2.7 10.2 6.8 14.7 9.2 4.6 2.3 8.3 4.8 8.3 5.5 0 0.8-2.1 1.2-7.3 1.2-3.9 0-11.3-0.7-16.2-1.6-5-0.8-12.8-3-17.5-4.7-4.7-1.8-11.4-4.9-15-6.9-3.6-2-9.1-5.7-12.3-8.3-3.1-2.5-8.5-7.9-18.2-19.8l-9 0.7c-5 0.4-12.4 1.4-16.5 2.3-4.1 0.8-10.6 2.6-14.5 4-3.9 1.4-9 3.6-11.5 5-2.6 1.4-4.1 2.8-3.5 3.2 0.5 0.5 3.2 1.4 6 2.1 2.7 0.7 9.9 3.6 16 6.6 6 2.9 15 8.3 20 12 4.9 3.6 13.7 9.7 19.5 13.5 5.8 3.8 13.9 8.3 18 10 4.1 1.7 10.4 3.7 14 4.5 3.6 0.8 9.9 1.4 14 1.4 4.3 0 11.2-0.9 16-2.1 4.7-1.1 8.7-1.8 9-1.5 0.3 0.3-0.9 2.2-2.5 4.3-1.6 2-5.3 5.5-8 7.7-2.8 2.1-8.1 5.4-12 7.2-3.9 1.9-10.4 4.1-14.5 5-5.9 1.3-10.5 1.5-21.5 1-7.7-0.4-27.1-2-43-3.6-16-1.6-35.8-3.4-44-4.1-8.9-0.7-20.9-0.9-29.5-0.5-8 0.4-19.9 1.4-26.5 2.2-6.6 0.8-17.2 2.7-23.5 4-6.3 1.4-18.3 4.8-26.5 7.5-8.3 2.8-21.5 8.2-29.5 12-8 3.9-19.5 10.3-25.5 14.4-6.1 4-15.3 10.9-20.5 15.2-5.2 4.4-11.7 10.4-14.3 13.4-3.1 3.4-5.1 5-5.7 4.4-0.6-0.6 8.6-19.5 24.4-50 13.8-26.9 34.8-67.7 46.6-90.5 11.7-22.8 28.4-55.2 37-72 8.6-16.8 26.6-51.6 40-77.5 13.3-25.9 27-51.9 30.2-58 3.3-6.1 8.1-13.9 10.7-17.5 2.5-3.6 7.3-9.4 10.6-12.9 3.3-3.5 9.8-9.2 14.5-12.7 4.7-3.5 13-8.6 18.5-11.3 5.5-2.7 13.1-5.9 17-7.1 3.9-1.1 10.6-2.7 15-3.4 4.4-0.8 13.4-1.4 20-1.5zm164.1 330.1c4.4 0.2 7.1 1 10 2.9 2.3 1.5 4.8 4.3 6.1 7 1.2 2.4 2.5 6.2 2.9 8.4 0.6 3.8 0.5 4-2.2 4.8-1.6 0.4-5.1 0.3-7.9-0.2-2.8-0.6-6.9-2.3-9.2-3.8-2.3-1.6-5-3.9-6.1-5.3-1.1-1.4-2.7-4.2-3.6-6.3-1.6-3.7-1.6-3.7 1.1-5.8 2.3-1.7 3.9-2 8.9-1.7z" fill="#1f2937" class="color000 svgShape"></path><path fill="#c6c4c5" d="m534.3 459.6c0.7 0.2 2.3 3 3.7 6.1 1.4 3.1 4.3 7.7 6.5 10.2 2.2 2.4 7.2 6.5 11 9.1 3.9 2.5 10.5 5.7 14.8 7 4.2 1.4 7.7 2.7 7.7 3 0 0.3-1.9 0.9-4.2 1.3-2.4 0.5-6.2 1.7-8.5 2.8-3.2 1.4-4.7 2.9-5.9 5.6-1 2.3-1.3 5.1-1 7 0.4 1.9 0.2 3.3-0.4 3.3-0.5 0-3.2-2.6-5.9-5.8-2.6-3.1-6.4-8-8.4-10.7-1.9-2.8-4.9-7.9-6.6-11.5-1.6-3.6-3.4-9.2-3.9-12.5-0.5-3.3-0.7-8.1-0.5-10.7q0.4-4.7 1.6-4.2z" class="colorc6c4c5 svgShape"></path></svg></g></svg>